<?xml version="1.0" encoding="iso-8859-1"?>
<!-- Generator: Adobe Illustrator 18.0.0, SVG Export Plug-In . SVG Version: 6.00 Build 0)  -->
<!DOCTYPE svg PUBLIC "-//W3C//DTD SVG 1.1//EN" "http://www.w3.org/Graphics/SVG/1.1/DTD/svg11.dtd">
<svg xmlns="http://www.w3.org/2000/svg" xmlns:xlink="http://www.w3.org/1999/xlink" version="1.1" id="Capa_1" x="0px" y="0px" viewBox="0 0 399.385 399.385" style="enable-background:new 0 0 399.385 399.385;" xml:space="preserve" width="32px" height="32px">
<g>
	<g>
		<path d="M262.06,46.845c-4.285-9.17-12.111-14.911-20.937-15.355c-13.292-0.659-27.207,9.817-41.433,31.168    c-14.232-21.354-28.177-31.833-41.431-31.168c-8.824,0.444-16.651,6.184-20.938,15.355c-11.213,23.993,14.289,62.118,59.32,88.683    c0.957,0.564,2.007,0.833,3.043,0.833l0.006-0.021l0.006,0.021c1.036,0,2.086-0.269,3.043-0.833    C247.772,108.963,273.274,70.838,262.06,46.845z M199.692,123.346c-36.01-22.229-59.436-54.437-51.498-71.42    c1.139-2.437,4.458-8.138,10.669-8.451c4.575-0.229,17.221,2.572,35.663,33.487c0.494,0.838,1.199,1.567,2.093,2.101    c2.848,1.697,6.53,0.766,8.227-2.08c18.449-30.936,31.119-33.743,35.675-33.508c6.211,0.313,9.53,6.014,10.669,8.451    C259.126,68.909,235.701,101.117,199.692,123.346z" fill="#b02642"/>
		<path d="M239.259,312.403c11.586,0,21.012-9.426,21.012-21.012c0-11.586-9.426-21.012-21.012-21.012h-18.555V156.234    c71.759-45.372,73.941-90.186,71.186-108.25c-3.627-23.768-20.831-42.678-42.812-47.055c-18.545-3.695-36.495,3.75-49.387,20.081    c-12.89-16.33-30.836-23.776-49.386-20.081c-21.98,4.376-39.185,23.286-42.811,47.054c-2.757,18.065-0.573,62.878,71.186,108.252    v222.138c0,11.586,9.426,21.012,21.012,21.012c11.586,0,21.012-9.426,21.012-21.012v-8.168h18.555    c11.586,0,21.012-9.426,21.012-21.012c0-11.586-9.426-21.012-21.012-21.012h-10.555v-15.778H239.259z M119.358,49.794    C122.225,31,135.604,16.093,152.65,12.699c16.228-3.235,31.507,4.767,41.91,21.945l0.002-0.001    c0.485,0.803,1.163,1.505,2.021,2.025c2.834,1.716,6.524,0.811,8.24-2.024c10.404-17.179,25.688-25.176,41.911-21.945    c17.046,3.394,30.425,18.302,33.292,37.096c2.56,16.778-0.275,60.308-80.335,104.962    C119.633,110.103,116.797,66.572,119.358,49.794z M248.271,349.193c0,4.969-4.043,9.012-9.012,9.012h-24.555c-3.313,0-6,2.686-6,6    v14.168c0,4.969-4.043,9.012-9.012,9.012c-4.969,0-9.012-4.043-9.012-9.012V163.446c2.004,1.146,4.039,2.292,6.138,3.437    c0.912,0.498,1.896,0.733,2.868,0.733l0.005-0.02l0.005,0.02c0.972,0,1.956-0.235,2.868-0.733c2.099-1.145,4.135-2.291,6.14-3.438    V276.38c0,3.314,2.687,6,6,6h24.555c4.969,0,9.012,4.042,9.012,9.012c0,4.97-4.043,9.012-9.012,9.012h-16.555    c-3.313,0-6,2.686-6,6v27.778c0,3.314,2.687,6,6,6h16.555C244.228,340.182,248.271,344.225,248.271,349.193z" fill="#b02642"/>
	</g>
</g>
<g>
</g>
<g>
</g>
<g>
</g>
<g>
</g>
<g>
</g>
<g>
</g>
<g>
</g>
<g>
</g>
<g>
</g>
<g>
</g>
<g>
</g>
<g>
</g>
<g>
</g>
<g>
</g>
<g>
</g>
</svg>
